<svg width="24" height="22" viewBox="0 0 24 22" fill="none" xmlns="http://www.w3.org/2000/svg">
<path d="M12 9.61854C10.7687 9.61854 9.73571 9.2052 8.90105 8.37854C8.06639 7.55187 7.64906 6.52878 7.64906 5.30927C7.64906 4.08976 8.06639 3.06667 8.90105 2.24C9.73571 1.41333 10.7687 1 12 1C13.2313 1 14.2643 1.41333 15.099 2.24C15.9336 3.06667 16.3509 4.08976 16.3509 5.30927C16.3509 6.52878 15.9336 7.55187 15.099 8.37854C14.2643 9.2052 13.2313 9.61854 12 9.61854ZM1 21V19.0088C1 18.4124 1.19176 17.8498 1.57527 17.321C1.95812 16.7928 2.46411 16.3798 3.09322 16.082C4.62595 15.4042 6.1311 14.8891 7.60867 14.5366C9.08624 14.1847 10.55 14.0088 12 14.0088C13.45 14.0088 14.9138 14.1847 16.3913 14.5366C17.8689 14.8891 19.374 15.4176 20.9068 16.122C21.5359 16.3932 22.0419 16.7928 22.4247 17.321C22.8082 17.8498 23 18.4124 23 19.0088V21H1ZM1.98505 20.0244H22.015V19.0088C22.015 18.6289 21.878 18.2563 21.6042 17.8907C21.3303 17.5246 20.9337 17.2062 20.4143 16.9356C19.0457 16.2852 17.6637 15.7974 16.2682 15.4722C14.8727 15.147 13.45 14.9844 12 14.9844C10.55 14.9844 9.12038 15.147 7.71111 15.4722C6.30184 15.7974 4.92672 16.2852 3.58574 16.9356C3.0663 17.2062 2.66965 17.5246 2.39581 17.8907C2.12197 18.2563 1.98505 18.6289 1.98505 19.0088V20.0244ZM12 8.64293C12.9305 8.64293 13.7242 8.31772 14.3809 7.66732C15.0376 7.01691 15.3659 6.23089 15.3659 5.30927C15.3659 4.38764 15.0376 3.60163 14.3809 2.95122C13.7242 2.30081 12.9305 1.97561 12 1.97561C11.0695 1.97561 10.2758 2.30081 9.61915 2.95122C8.96245 3.60163 8.6341 4.38764 8.6341 5.30927C8.6341 6.23089 8.96245 7.01691 9.61915 7.66732C10.2758 8.31772 11.0695 8.64293 12 8.64293Z" fill="#FCFDFE" stroke="#FCFDFE"/>
</svg>
