<svg width="28" height="28" viewBox="0 0 28 28" fill="none" xmlns="http://www.w3.org/2000/svg">
<path d="M4.11662 7.02254C4.08464 6.99219 4.05896 6.95585 4.04102 6.91558L4.0651 6.8999L4.11662 7.02254Z" fill="#0299D6"/>
<path d="M5.76572 15.8495L5.73828 15.8618V15.8573L5.76572 15.8495Z" fill="#0299D6"/>
<path d="M15.5654 7.40137L15.5733 7.40921C15.538 7.43799 15.496 7.45727 15.4512 7.46521L15.5654 7.40137Z" fill="#0299D6"/>
<path d="M15.814 7.27481C15.7804 7.28375 15.7457 7.2879 15.7109 7.28713L15.8101 7.26697L15.814 7.27481Z" fill="#0299D6"/>
<path d="M12.5142 15.6954L12.4705 15.9088L12.4033 16.3511L12.368 16.8966V17.4773L12.3283 17.9992L12.2493 18.4852V18.4892L12.1373 18.9371L12.0303 19.2373L11.971 19.2933L11.9671 19.384L11.8483 19.6214L11.6551 19.9496L11.4255 20.2341L11.1612 20.4905L11.0005 20.6081H10.9692L10.8784 20.6988L10.6925 20.8019H10.6175L10.5542 20.8691L10.3767 20.9441L10.0524 21.0348L9.79932 21.0785C7.43618 21.3236 5.09877 21.7733 2.81336 22.4225C0.990787 20.0005 0.00354392 17.0524 9.52314e-06 14.0213C-0.00352487 10.9901 0.97684 8.03976 2.79376 5.61353L2.93208 5.68072L3.19248 5.84872L3.1964 5.85264L3.2048 5.86048L3.21264 5.8644L3.42992 6.04863L3.6668 6.30566L3.85664 6.56997L4.02464 6.87852L4.02856 6.88244L4.15904 7.21059C4.15092 7.17847 4.14586 7.14566 4.14392 7.11259L4.25592 7.58298C4.25053 7.557 4.24772 7.53055 4.24752 7.50402L4.26767 7.62218C4.26375 7.61826 4.26375 7.61042 4.25984 7.6065L4.32703 8.03712L4.35447 8.45599L4.34271 8.91461C4.33879 8.93813 4.33879 8.95773 4.33487 8.97061L4.28335 9.46843L4.1848 9.98977L4.1764 10.057V10.0374L4.1176 10.5414L4.09744 11.0235L4.10528 11.5012L4.1372 12.0611L4.20048 12.6816L4.28727 13.306L4.42391 14.02L4.57007 14.6678L4.75991 15.4149L5.19447 16.8059L5.47111 17.5568L6.0479 18.9394L6.37214 19.1886L7.11078 19.295H7.1147L7.1707 19.2989L8.08741 19.4137L9.8262 19.5755L10.2014 19.4075L11.0587 18.1868L11.4737 17.5422L11.8808 16.8747L12.2403 16.2229L12.5142 15.6954Z" fill="#0299D6"/>
<path d="M22.6415 21.5314L22.7205 21.4799L22.5508 21.6339L22.6415 21.5314Z" fill="#0299D6"/>
<path d="M24.6061 23.1358C23.2917 24.6626 21.6631 25.8876 19.8317 26.727C18.0003 27.5665 16.0093 28.0007 13.9946 28C11.98 27.9992 9.98923 27.5636 8.15845 26.7227C6.32768 25.8819 4.70002 24.6557 3.38672 23.128C5.50638 22.5471 7.67021 22.1414 9.85636 21.9151L10.1364 21.8792L10.1996 21.8675L10.5037 21.7846L10.8795 21.6424H10.9819L11.0603 21.5601L11.2659 21.4481L11.337 21.4441L11.4361 21.3372L11.6965 21.1395C11.7294 21.1147 11.7599 21.087 11.7878 21.0566L11.9731 20.8713L12.2655 20.5235C12.2992 20.49 12.3285 20.4524 12.3528 20.4115L12.5499 20.1036L12.7359 19.72L12.807 19.6449V19.5542L12.9296 19.2143L13.064 18.6969L13.1547 18.1515C13.1619 18.1145 13.1659 18.0771 13.1665 18.0395L13.2063 17.526V16.9245L13.2376 16.4581L13.2891 16.0986L13.5131 15.1068L13.6475 14.6482L13.699 14.5922V14.4858L13.8609 14.0037L13.9202 13.9443V13.8458L14.0938 13.395L14.6723 12.1154L14.9764 11.5191L15.0554 11.4401V11.3606L15.3242 10.8829L15.407 10.7956L15.411 10.7284L15.747 10.1684L16.1619 9.516L16.4027 9.15649L17.8962 9.24049L19.3466 9.37489L19.8444 10.4461L20.1368 11.1769L20.3781 11.8164L20.382 11.9189L20.433 11.9704L20.6072 12.4923V12.6043L20.6548 12.6558L20.8127 13.1889L20.8205 13.3155L20.8642 13.3552L21.1324 14.4752L21.1364 14.6135L21.1644 14.6449L21.2433 15.0716L21.2472 15.2256L21.2708 15.2496L21.3828 16.2055L21.4063 16.6681V17.0802L21.3749 17.4632L21.2842 18.0759L21.2394 18.7042L21.2433 19.2177C21.2415 19.2364 21.2428 19.2553 21.2472 19.2737L21.2909 19.744L21.3816 20.2178C21.3856 20.234 21.3856 20.2458 21.3895 20.2575L21.5121 20.6529L21.7216 21.1468L21.7333 21.1703C21.7377 21.1799 21.7429 21.1891 21.749 21.1978L21.7608 21.2218C21.7686 21.2297 21.7725 21.2375 21.7809 21.2454L21.9271 21.5024L22.1679 21.8261L22.4641 22.1424L22.7962 22.4224L23.2111 22.6789L23.5667 22.8374C23.6041 22.853 23.6424 22.8661 23.6815 22.8766L23.8591 22.9359L23.9263 22.9634H23.9683C24.1833 23.021 24.3927 23.0765 24.6061 23.1358Z" fill="#0299D6"/>
<path d="M27.9989 14.0002C28.003 17.0421 27.0122 20.0019 25.1776 22.4284C24.8416 22.3293 24.5017 22.2347 24.1578 22.1484L23.6443 21.9586L23.3643 21.7968L22.8603 21.3488L22.6627 21.0923L22.4947 20.8078L22.3524 20.5032L22.3485 20.3968L22.2925 20.3453L22.2214 20.1123V19.9975L22.1855 19.9583L22.1295 19.6856L22.0819 19.2432C22.0829 19.2337 22.0816 19.2241 22.078 19.2153L22.0741 18.7213L22.1055 18.2594V18.2392L22.1094 18.2235V18.2L22.1883 17.6859L22.2399 17.117V16.6433L22.2163 16.165L22.1603 15.5883L21.9666 14.3748L21.8165 13.6916L21.6429 13.0196L21.4469 12.3723V12.2603L21.3954 12.2093L21.1977 11.6085L20.6327 10.1665L20.2933 9.39711L19.9013 8.58682L17.9335 8.40483L15.9774 8.29283L15.0254 9.7387L14.6508 10.3603L14.5679 10.4516V10.5104L13.9122 11.7513L13.9004 11.7709L13.9278 11.6365L13.9318 11.5894H13.9357L13.9793 11.1627L13.9989 10.5843C14.0029 10.5608 14.0029 10.5412 14.0068 10.5283L14.0583 10.0305L14.149 9.57183L14.2677 9.16472C14.2638 9.17256 14.2599 9.17648 14.2599 9.1804L14.2717 9.1244H14.2756L14.2913 9.02921C14.292 9.05877 14.2881 9.08826 14.2795 9.11656L14.4257 8.75257L14.6194 8.38915L14.8171 8.10076L15.0501 7.82805L15.3032 7.5951C15.2848 7.61028 15.2649 7.6236 15.2438 7.63485L15.3345 7.56766C15.3264 7.57776 15.3172 7.58696 15.3071 7.5951L15.5479 7.43326L15.5714 7.40918L15.5793 7.40526L15.5837 7.40134L15.5955 7.3935L15.8402 7.26695L15.8481 7.26303L16.1443 7.15103L16.4803 7.07207L16.7138 7.04799C19.5805 6.85846 22.419 6.36496 25.1815 5.57581C27.0131 8.00215 28.0023 10.9602 27.9989 14.0002Z" fill="#0299D6"/>
<path d="M24.7804 4.86459C22.1846 5.58375 19.5219 6.03521 16.8341 6.21191L16.5457 6.23991V6.25167L16.4785 6.26343L16.4746 6.25167L16.1582 6.32838C16.1323 6.33129 16.1071 6.33789 16.0831 6.34798L15.7393 6.47846L15.3602 6.66437L15.3322 6.68397C15.2913 6.70319 15.2535 6.72849 15.2202 6.75901L15.0583 6.871C15.0187 6.88986 14.9826 6.91522 14.9514 6.94604L14.6865 7.17899C14.6454 7.20863 14.6095 7.24475 14.5801 7.28595L14.3667 7.53458C14.3336 7.56754 14.3057 7.6053 14.2838 7.64658L14.0901 7.92657L14.0582 7.99768L14.0503 7.99376L13.8689 8.33311L13.8571 8.38463L13.8448 8.38071C13.8324 8.40263 13.8244 8.4268 13.8213 8.45183L13.683 8.7839C13.6656 8.82195 13.6522 8.86175 13.6432 8.90261L13.5251 9.30524L13.5329 9.30916L13.5172 9.3842H13.5055L13.4103 9.87026L13.4024 9.92962L13.3985 9.9257L13.3425 10.4594L13.3173 11.0882L13.2775 11.4869H13.2736L13.1947 11.9215L13.0961 12.3566L13.0922 12.3801H13.0883L12.9376 12.8897L12.7523 13.4429H12.7562L12.2858 14.5926L11.9974 15.2052L11.6731 15.8296L11.3254 16.4579L10.9463 17.0862L10.5313 17.7301L10.0833 18.3741L10.099 18.3859L10.0951 18.3937L10.0794 18.382L9.83412 18.7179L9.28084 18.6704L7.44741 18.4648H7.40429L6.9003 18.3898L6.44166 17.2838L6.17286 16.5447H6.1667L5.9427 15.8481L5.74222 15.1761L5.56471 14.4963L5.41855 13.8321L5.29983 13.1921L5.27575 13.196V13.1876H5.29591L5.21471 12.6562L5.15143 12.0357L5.11951 11.4942L5.11167 11.0244L5.13127 10.5938L5.18279 10.167H5.18111L5.18503 10.1508L5.28415 9.62555L5.29199 9.56619L5.29591 9.57011L5.35527 9.02861L5.37095 8.46863C5.37173 8.43125 5.37042 8.39386 5.36703 8.35663L5.34295 8.0128C5.34463 7.96916 5.34201 7.92546 5.33511 7.88233L5.27071 7.47634C5.26747 7.44001 5.25957 7.40425 5.24719 7.36995L5.15255 7.03396H5.14863L5.14079 6.98244L5.13631 6.98636L4.99015 6.59437L4.97447 6.59829L4.94423 6.49638L4.76671 6.16879L4.75887 6.15255L4.73535 6.11727L4.50239 5.7852C4.48298 5.76128 4.46183 5.73882 4.43911 5.718L4.2532 5.51249C4.22356 5.47145 4.18743 5.43551 4.14624 5.4061L3.93232 5.2241C3.89781 5.19284 3.8603 5.16508 3.82032 5.14122L3.52016 4.94747L3.5 4.94355C4.80806 3.40096 6.43495 2.16023 8.26863 1.30682C10.1023 0.453412 12.0992 0.00760082 14.1217 9.63455e-05C16.1443 -0.00740813 18.1444 0.423572 19.9844 1.26335C21.8243 2.10313 23.4609 3.33176 24.7804 4.86459Z" fill="#0299D6"/>
</svg>
