<svg width="32" height="32" viewBox="0 0 32 32" fill="none" xmlns="http://www.w3.org/2000/svg">
<g clip-path="url(#clip0_714_15113)">
<path d="M17 12C17 11.4477 16.5523 11 16 11C15.4477 11 15 11.4477 15 12V12.02C15 12.5723 15.4477 13.02 16 13.02C16.5523 13.02 17 12.5723 17 12.02V12ZM9 12C9 11.4477 8.55229 11 8 11C7.44772 11 7 11.4477 7 12V12.02C7 12.5723 7.44772 13.02 8 13.02C8.55229 13.02 9 12.5723 9 12.02V12ZM25 12C25 11.4477 24.5523 11 24 11C23.4477 11 23 11.4477 23 12V12.02C23 12.5723 23.4477 13.02 24 13.02C24.5523 13.02 25 12.5723 25 12.02V12ZM1 29.5858V6C1 4.67392 1.52678 3.40215 2.46447 2.46447C3.40215 1.52678 4.67392 1 6 1H26C27.3261 1 28.5978 1.52678 29.5355 2.46447C30.4732 3.40215 31 4.67392 31 6V18C31 19.3261 30.4732 20.5979 29.5355 21.5355C28.5979 22.4732 27.3261 23 26 23H8C7.73478 23 7.48043 23.1054 7.29289 23.2929L1 29.5858Z" stroke="#FCFDFE" stroke-width="2" stroke-linecap="round" stroke-linejoin="round"/>
</g>
<defs>
<clipPath id="clip0_714_15113">
<rect width="32" height="32.0001" fill="white"/>
</clipPath>
</defs>
</svg>
